<mxfile host="app.diagrams.net" modified="2023-11-17T10:23:28.803Z" agent="Mozilla/5.0 (Windows NT 10.0; Win64; x64) AppleWebKit/537.36 (KHTML, like Gecko) Chrome/119.0.0.0 Safari/537.36" etag="hg4bdXUM1uILzxffsV_k" version="22.1.2" type="github">
  <diagram id="C5RBs43oDa-KdzZeNtuy" name="Page-1">
    <mxGraphModel dx="1711" dy="812" grid="0" gridSize="10" guides="1" tooltips="1" connect="1" arrows="1" fold="1" page="1" pageScale="1" pageWidth="3300" pageHeight="4681" math="0" shadow="0">
      <root>
        <mxCell id="WIyWlLk6GJQsqaUBKTNV-0" />
        <mxCell id="WIyWlLk6GJQsqaUBKTNV-1" parent="WIyWlLk6GJQsqaUBKTNV-0" />
        <mxCell id="UCjfILgmCSmUN9uClbiI-9" value="灰度环境" style="text;html=1;strokeColor=none;fillColor=none;align=center;verticalAlign=middle;whiteSpace=wrap;rounded=0;fontSize=15;fontStyle=1" vertex="1" parent="WIyWlLk6GJQsqaUBKTNV-1">
          <mxGeometry x="858" y="519" width="85" height="26" as="geometry" />
        </mxCell>
        <mxCell id="UCjfILgmCSmUN9uClbiI-24" value="" style="rounded=0;whiteSpace=wrap;html=1;fontSize=18;" vertex="1" parent="WIyWlLk6GJQsqaUBKTNV-1">
          <mxGeometry x="114" y="659" width="431" height="98" as="geometry" />
        </mxCell>
        <mxCell id="UCjfILgmCSmUN9uClbiI-25" value="微服务A" style="rounded=0;whiteSpace=wrap;html=1;fontSize=18;" vertex="1" parent="WIyWlLk6GJQsqaUBKTNV-1">
          <mxGeometry x="136" y="680" width="120" height="60" as="geometry" />
        </mxCell>
        <mxCell id="UCjfILgmCSmUN9uClbiI-26" value="微服务B" style="rounded=0;whiteSpace=wrap;html=1;fontSize=18;" vertex="1" parent="WIyWlLk6GJQsqaUBKTNV-1">
          <mxGeometry x="273" y="680" width="120" height="60" as="geometry" />
        </mxCell>
        <mxCell id="UCjfILgmCSmUN9uClbiI-27" value="微服务C" style="rounded=0;whiteSpace=wrap;html=1;fontSize=18;" vertex="1" parent="WIyWlLk6GJQsqaUBKTNV-1">
          <mxGeometry x="405" y="680" width="120" height="60" as="geometry" />
        </mxCell>
        <mxCell id="UCjfILgmCSmUN9uClbiI-28" value="" style="rounded=0;whiteSpace=wrap;html=1;fontSize=18;" vertex="1" parent="WIyWlLk6GJQsqaUBKTNV-1">
          <mxGeometry x="694.5" y="662" width="431" height="98" as="geometry" />
        </mxCell>
        <mxCell id="UCjfILgmCSmUN9uClbiI-29" value="微服务A" style="rounded=0;whiteSpace=wrap;html=1;fontSize=18;" vertex="1" parent="WIyWlLk6GJQsqaUBKTNV-1">
          <mxGeometry x="716.5" y="683" width="120" height="60" as="geometry" />
        </mxCell>
        <mxCell id="UCjfILgmCSmUN9uClbiI-30" value="微服务B" style="rounded=0;whiteSpace=wrap;html=1;fontSize=18;" vertex="1" parent="WIyWlLk6GJQsqaUBKTNV-1">
          <mxGeometry x="853.5" y="683" width="120" height="60" as="geometry" />
        </mxCell>
        <mxCell id="UCjfILgmCSmUN9uClbiI-31" value="微服务C" style="rounded=0;whiteSpace=wrap;html=1;fontSize=18;" vertex="1" parent="WIyWlLk6GJQsqaUBKTNV-1">
          <mxGeometry x="985.5" y="683" width="120" height="60" as="geometry" />
        </mxCell>
        <mxCell id="UCjfILgmCSmUN9uClbiI-32" value="生产环境" style="text;html=1;strokeColor=none;fillColor=none;align=center;verticalAlign=middle;whiteSpace=wrap;rounded=0;fontSize=18;fontStyle=1" vertex="1" parent="WIyWlLk6GJQsqaUBKTNV-1">
          <mxGeometry x="264" y="638" width="90.5" height="18" as="geometry" />
        </mxCell>
        <mxCell id="UCjfILgmCSmUN9uClbiI-33" value="灰度环境" style="text;html=1;strokeColor=none;fillColor=none;align=center;verticalAlign=middle;whiteSpace=wrap;rounded=0;fontSize=18;fontStyle=1" vertex="1" parent="WIyWlLk6GJQsqaUBKTNV-1">
          <mxGeometry x="874.5" y="636" width="85" height="26" as="geometry" />
        </mxCell>
        <mxCell id="UCjfILgmCSmUN9uClbiI-34" style="edgeStyle=orthogonalEdgeStyle;rounded=0;orthogonalLoop=1;jettySize=auto;html=1;entryX=0.5;entryY=0;entryDx=0;entryDy=0;" edge="1" parent="WIyWlLk6GJQsqaUBKTNV-1" source="UCjfILgmCSmUN9uClbiI-35" target="UCjfILgmCSmUN9uClbiI-38">
          <mxGeometry relative="1" as="geometry" />
        </mxCell>
        <mxCell id="UCjfILgmCSmUN9uClbiI-35" value="发起请求" style="rounded=0;whiteSpace=wrap;html=1;fontSize=18;" vertex="1" parent="WIyWlLk6GJQsqaUBKTNV-1">
          <mxGeometry x="577.5" y="160" width="117" height="37" as="geometry" />
        </mxCell>
        <mxCell id="UCjfILgmCSmUN9uClbiI-36" value="开始" style="strokeWidth=2;html=1;shape=mxgraph.flowchart.start_1;whiteSpace=wrap;fontSize=18;" vertex="1" parent="WIyWlLk6GJQsqaUBKTNV-1">
          <mxGeometry x="592" y="76" width="106" height="43" as="geometry" />
        </mxCell>
        <mxCell id="UCjfILgmCSmUN9uClbiI-37" style="edgeStyle=orthogonalEdgeStyle;rounded=0;orthogonalLoop=1;jettySize=auto;html=1;entryX=0.573;entryY=0.054;entryDx=0;entryDy=0;entryPerimeter=0;" edge="1" parent="WIyWlLk6GJQsqaUBKTNV-1" source="UCjfILgmCSmUN9uClbiI-36" target="UCjfILgmCSmUN9uClbiI-35">
          <mxGeometry relative="1" as="geometry" />
        </mxCell>
        <mxCell id="UCjfILgmCSmUN9uClbiI-38" value="" style="rounded=1;whiteSpace=wrap;html=1;absoluteArcSize=1;arcSize=14;strokeWidth=2;fillColor=#fff2cc;strokeColor=#d6b656;" vertex="1" parent="WIyWlLk6GJQsqaUBKTNV-1">
          <mxGeometry x="586" y="245" width="100" height="100" as="geometry" />
        </mxCell>
        <mxCell id="UCjfILgmCSmUN9uClbiI-39" style="edgeStyle=orthogonalEdgeStyle;rounded=0;orthogonalLoop=1;jettySize=auto;html=1;exitX=0.5;exitY=1;exitDx=0;exitDy=0;" edge="1" parent="WIyWlLk6GJQsqaUBKTNV-1" source="UCjfILgmCSmUN9uClbiI-40" target="UCjfILgmCSmUN9uClbiI-46">
          <mxGeometry relative="1" as="geometry" />
        </mxCell>
        <mxCell id="UCjfILgmCSmUN9uClbiI-40" value="生产网关" style="text;html=1;strokeColor=none;fillColor=none;align=center;verticalAlign=middle;whiteSpace=wrap;rounded=0;fontSize=18;" vertex="1" parent="WIyWlLk6GJQsqaUBKTNV-1">
          <mxGeometry x="591.5" y="350" width="87" height="26" as="geometry" />
        </mxCell>
        <mxCell id="UCjfILgmCSmUN9uClbiI-41" style="edgeStyle=orthogonalEdgeStyle;rounded=0;orthogonalLoop=1;jettySize=auto;html=1;" edge="1" parent="WIyWlLk6GJQsqaUBKTNV-1" source="UCjfILgmCSmUN9uClbiI-42">
          <mxGeometry relative="1" as="geometry">
            <mxPoint x="1077" y="661" as="targetPoint" />
          </mxGeometry>
        </mxCell>
        <mxCell id="UCjfILgmCSmUN9uClbiI-42" value="" style="rounded=1;whiteSpace=wrap;html=1;absoluteArcSize=1;arcSize=14;strokeWidth=2;fillColor=#e1d5e7;strokeColor=#9673a6;" vertex="1" parent="WIyWlLk6GJQsqaUBKTNV-1">
          <mxGeometry x="872" y="465" width="100" height="100" as="geometry" />
        </mxCell>
        <mxCell id="UCjfILgmCSmUN9uClbiI-43" value="灰度网关" style="text;html=1;strokeColor=none;fillColor=none;align=center;verticalAlign=middle;whiteSpace=wrap;rounded=0;fontSize=18;" vertex="1" parent="WIyWlLk6GJQsqaUBKTNV-1">
          <mxGeometry x="876" y="565" width="87" height="26" as="geometry" />
        </mxCell>
        <mxCell id="UCjfILgmCSmUN9uClbiI-44" style="edgeStyle=orthogonalEdgeStyle;rounded=0;orthogonalLoop=1;jettySize=auto;html=1;" edge="1" parent="WIyWlLk6GJQsqaUBKTNV-1" source="UCjfILgmCSmUN9uClbiI-46" target="UCjfILgmCSmUN9uClbiI-42">
          <mxGeometry relative="1" as="geometry" />
        </mxCell>
        <mxCell id="UCjfILgmCSmUN9uClbiI-45" value="是" style="edgeLabel;html=1;align=center;verticalAlign=middle;resizable=0;points=[];fontSize=15;" vertex="1" connectable="0" parent="UCjfILgmCSmUN9uClbiI-44">
          <mxGeometry x="-0.1049" y="-4" relative="1" as="geometry">
            <mxPoint x="1" y="-6" as="offset" />
          </mxGeometry>
        </mxCell>
        <mxCell id="UCjfILgmCSmUN9uClbiI-46" value="满足灰度转发策略" style="strokeWidth=2;html=1;shape=mxgraph.flowchart.decision;whiteSpace=wrap;fontSize=15;" vertex="1" parent="WIyWlLk6GJQsqaUBKTNV-1">
          <mxGeometry x="559.5" y="475" width="151" height="79" as="geometry" />
        </mxCell>
        <mxCell id="UCjfILgmCSmUN9uClbiI-47" style="edgeStyle=orthogonalEdgeStyle;rounded=0;orthogonalLoop=1;jettySize=auto;html=1;entryX=0.717;entryY=-0.051;entryDx=0;entryDy=0;entryPerimeter=0;" edge="1" parent="WIyWlLk6GJQsqaUBKTNV-1" source="UCjfILgmCSmUN9uClbiI-46" target="UCjfILgmCSmUN9uClbiI-24">
          <mxGeometry relative="1" as="geometry" />
        </mxCell>
        <mxCell id="UCjfILgmCSmUN9uClbiI-48" value="否" style="edgeLabel;html=1;align=center;verticalAlign=middle;resizable=0;points=[];fontSize=15;" vertex="1" connectable="0" parent="UCjfILgmCSmUN9uClbiI-47">
          <mxGeometry x="-0.1993" y="4" relative="1" as="geometry">
            <mxPoint x="12" y="-5" as="offset" />
          </mxGeometry>
        </mxCell>
      </root>
    </mxGraphModel>
  </diagram>
</mxfile>
